<svg xmlns="http://www.w3.org/2000/svg" xmlns:xlink="http://www.w3.org/1999/xlink">
	<symbol id="search" viewBox="0 0 22 22">
		<path d="M19.25 17.4167L14.5255 12.6922C15.3989 11.3648 15.7487 9.76053 15.5072 8.18999C15.2657 6.61945 14.4501 5.19437 13.2182 4.19068C11.9863 3.18698 10.4259 2.67606 8.83892 2.75684C7.25197 2.83762 5.75144 3.50434 4.62785 4.62794C3.50425 5.75153 2.83752 7.25206 2.75675 8.83901C2.67597 10.426 3.18689 11.9864 4.19058 13.2183C5.19428 14.4502 6.61936 15.2658 8.1899 15.5073C9.76044 15.7488 11.3647 15.399 12.6922 14.5256L17.4167 19.2501L19.25 17.4167ZM4.58332 9.16675C4.58332 6.6395 6.63941 4.58341 9.16666 4.58341C11.6939 4.58341 13.75 6.6395 13.75 9.16675C13.75 11.694 11.6939 13.7501 9.16666 13.7501C6.63941 13.7501 4.58332 11.694 4.58332 9.16675Z" fill="white"/>
	</symbol>
	<symbol id="login" viewBox="0 0 14 14">
		<path d="M5.25001 1.16675H10.5C11.1417 1.16675 11.6667 1.69175 11.6667 2.33341V11.6667C11.6667 12.3084 11.1417 12.8334 10.5 12.8334H5.25001C4.60834 12.8334 4.08334 12.3084 4.08334 11.6667V10.5001H5.25001V11.6667H10.5V2.33341H5.25001V3.50008H4.08334V2.33341C4.08334 1.69175 4.60834 1.16675 5.25001 1.16675Z" fill="#969696"/>
		<path d="M5.88583 9.09409L6.70833 9.91658L9.625 6.99992L6.70833 4.08325L5.88583 4.90575L7.39083 6.41659H1.75V7.58325H7.39083L5.88583 9.09409Z" fill="#969696"/>	
	</symbol>
	
  <symbol id="basket" viewBox="0 0 20 14">
		<path d="M19.0035 4.81175C18.9192 4.6899 18.8066 4.59031 18.6754 4.5215C18.5441 4.45269 18.3982 4.41672 18.25 4.41667H5.72193L4.66409 1.8775C4.52539 1.54312 4.29052 1.25746 3.98927 1.05673C3.68801 0.856001 3.33393 0.749247 2.97193 0.750004H0.833344V2.58334H2.97193L7.32059 13.0196C7.39025 13.1866 7.50775 13.3292 7.65831 13.4295C7.80887 13.5298 7.98575 13.5834 8.16668 13.5833H15.5C15.8823 13.5833 16.2242 13.3459 16.3589 12.9893L19.1089 5.656C19.1609 5.51724 19.1785 5.36794 19.1601 5.22091C19.1417 5.07387 19.088 4.93348 19.0035 4.81175ZM14.8648 11.75H8.77809L6.48643 6.25H16.9273L14.8648 11.75Z" fill="white"/>
	
	</symbol>
	<symbol id="phone" viewBox="0 0 14 14" >
		<path d="M10.6 13.6667C7.87817 13.6631 5.26886 12.5803 3.34425 10.6557C1.41964 8.73112 0.336841 6.1218 0.333313 3.39999C0.333313 2.58666 0.656407 1.80665 1.23152 1.23153C1.80663 0.656423 2.58665 0.333328 3.39998 0.333328C3.57221 0.332016 3.74415 0.347647 3.91331 0.379995C4.07685 0.404195 4.23762 0.444388 4.39331 0.499995C4.50281 0.538414 4.60039 0.60475 4.67639 0.692443C4.75239 0.780136 4.80418 0.886147 4.82665 0.999995L5.73998 4.99999C5.7646 5.10857 5.76163 5.22158 5.73136 5.32872C5.70108 5.43585 5.64445 5.5337 5.56665 5.61333C5.47998 5.70666 5.47331 5.71333 4.65331 6.13999C5.30998 7.58057 6.46211 8.73743 7.89998 9.39999C8.33331 8.57333 8.33998 8.56666 8.43331 8.47999C8.51294 8.40219 8.61079 8.34556 8.71792 8.31528C8.82506 8.28501 8.93807 8.28204 9.04665 8.30666L13.0466 9.21999C13.1568 9.24556 13.2587 9.29876 13.3427 9.37457C13.4267 9.45037 13.49 9.5463 13.5266 9.65333C13.5829 9.81157 13.6253 9.9744 13.6533 10.14C13.6801 10.3075 13.6935 10.477 13.6933 10.6467C13.681 11.4565 13.3488 12.2286 12.7693 12.7944C12.1897 13.3602 11.4099 13.6738 10.6 13.6667ZM3.39998 1.66666C2.94081 1.66842 2.50095 1.8516 2.17627 2.17628C1.85158 2.50097 1.6684 2.94083 1.66665 3.39999C1.66841 5.76872 2.61017 8.03992 4.28511 9.71486C5.96005 11.3898 8.23125 12.3316 10.6 12.3333C11.0591 12.3316 11.499 12.1484 11.8237 11.8237C12.1484 11.499 12.3316 11.0592 12.3333 10.6V10.38L9.23998 9.66666L9.04665 10.0333C8.74665 10.6133 8.52665 11.0333 7.96665 10.8067C6.8619 10.4112 5.85911 9.77468 5.03114 8.94325C4.20316 8.11181 3.5708 7.10638 3.17998 5.99999C2.93998 5.47999 3.39331 5.23999 3.96665 4.93999L4.33331 4.75999L3.61998 1.66666H3.39998Z" fill="#969696"/>

	</symbol>


	<use xlink:href="#search" width="25" height="25" x="50" y="0" />
	<use xlink:href="#login" width="25" height="25" x="100" y="0" />
	<use xlink:href="#basket" width="25" height="25" x="150" y="0" />
	<use xlink:href="#phone" width="25" height="25" x="200" y="0" />
</svg>